<svg xmlns="http://www.w3.org/2000/svg" viewBox="0 0 146 220"><defs><style>.cls-1{fill:#202532;}.cls-2{fill:#f2dbc9;}.cls-3{fill:#e5c8b5;}.cls-4{fill:#ff7bac;}.cls-5{fill:#381806;}.cls-6{fill:#42210b;}.cls-7{fill:#020202;}.cls-8{fill:#fff;}.cls-9{fill:#c1272d;opacity:0.17;}</style></defs><title>Mei_FD2</title><g id="Layer_4" data-name="Layer 4"><rect class="cls-1" x="-5.18" y="123" width="154.18" height="132" rx="36.4" ry="36.4"/><path class="cls-2" d="M121,83.45c-.09.5-.19,1-.29,1.5C120.81,84.45,120.91,84,121,83.45Z"/><path class="cls-2" d="M120.45,86.32c-.11.53-.25,1.06-.37,1.59C120.21,87.38,120.34,86.85,120.45,86.32Z"/><path class="cls-2" d="M120.71,58c.1.5.2,1,.29,1.5C120.91,59,120.81,58.55,120.71,58Z"/><path class="cls-2" d="M119.79,89.13c-.14.56-.31,1.11-.46,1.66C119.48,90.24,119.65,89.69,119.79,89.13Z"/><path class="cls-2" d="M121.43,80.53c-.06.47-.14.93-.21,1.4C121.3,81.46,121.37,81,121.43,80.53Z"/><path class="cls-2" d="M121.75,77.56c0,.44-.09.87-.14,1.31C121.65,78.43,121.71,78,121.75,77.56Z"/><path class="cls-2" d="M121.23,61.07c.07.47.15.93.21,1.4C121.37,62,121.3,61.54,121.23,61.07Z"/><path class="cls-2" d="M118.14,94.57c-.21.6-.44,1.19-.67,1.78C117.7,95.76,117.93,95.17,118.14,94.57Z"/><path class="cls-2" d="M121.61,64.12c0,.44.1.87.14,1.31C121.71,65,121.65,64.56,121.61,64.12Z"/><path class="cls-2" d="M121.86,67.29c0,.39.06.77.07,1.16C121.92,68.06,121.89,67.68,121.86,67.29Z"/><path class="cls-2" d="M121.94,74.55c0,.39,0,.77-.07,1.15C121.89,75.32,121.92,74.94,121.94,74.55Z"/><path class="cls-2" d="M119,91.88c-.17.58-.37,1.14-.56,1.71C118.65,93,118.84,92.46,119,91.88Z"/><path class="cls-2" d="M117.16,97.19c-.25.62-.51,1.23-.78,1.83C116.65,98.42,116.91,97.81,117.16,97.19Z"/><path class="cls-2" d="M109.27,111.32q-.74,1-1.51,1.93Q108.53,112.3,109.27,111.32Z"/><path class="cls-2" d="M107.65,113.38q-.8,1-1.64,1.89Q106.85,114.35,107.65,113.38Z"/><path class="cls-2" d="M106,115.34q-.86,1-1.76,1.85Q105.09,116.29,106,115.34Z"/><path class="cls-2" d="M73,12c11.86.14,22.72,5.29,31.19,13.78C95.6,17.19,84.56,12,72.5,12,45.16,12,23,38.64,23,71.5S45.16,131,72.5,131c12.06,0,23.1-5.19,31.69-13.79C95.72,125.69,84.86,130.84,73,131Z"/><path class="cls-2" d="M110.81,109.18c-.45.66-.92,1.31-1.39,1.94C109.89,110.48,110.36,109.84,110.81,109.18Z"/><path class="cls-2" d="M116.08,99.74c-.28.63-.59,1.25-.89,1.87C115.49,101,115.79,100.38,116.08,99.74Z"/><path class="cls-2" d="M112.26,106.94c-.41.66-.83,1.3-1.26,1.94C111.43,108.24,111.85,107.6,112.26,106.94Z"/><path class="cls-2" d="M114.9,102.22c-.32.64-.66,1.27-1,1.89C114.24,103.49,114.58,102.86,114.9,102.22Z"/><path class="cls-2" d="M113.62,104.62c-.36.65-.74,1.29-1.13,1.92C112.88,105.91,113.26,105.27,113.62,104.62Z"/><path class="cls-2" d="M104.2,25.8q.9.9,1.76,1.85Q105.1,26.71,104.2,25.8Z"/><path class="cls-2" d="M118.46,49.41c.19.57.38,1.13.56,1.71C118.84,50.54,118.65,50,118.46,49.41Z"/><path class="cls-2" d="M112.5,36.46c.38.63.76,1.27,1.13,1.92C113.26,37.73,112.88,37.09,112.5,36.46Z"/><path class="cls-2" d="M111,34.12c.43.64.85,1.28,1.26,1.94C111.85,35.4,111.43,34.76,111,34.12Z"/><path class="cls-2" d="M113.9,38.89c.34.62.68,1.25,1,1.89C114.58,40.14,114.24,39.51,113.9,38.89Z"/><path class="cls-2" d="M109.42,31.88c.47.64.94,1.28,1.39,1.94C110.36,33.16,109.89,32.52,109.42,31.88Z"/><path class="cls-2" d="M116.38,44c.26.61.53,1.21.77,1.83C116.91,45.19,116.65,44.59,116.38,44Z"/><path class="cls-2" d="M117.48,46.65c.23.59.45,1.18.66,1.78C117.93,47.83,117.7,47.24,117.48,46.65Z"/><path class="cls-2" d="M119.33,52.22c.16.55.32,1.1.46,1.65C119.65,53.31,119.48,52.77,119.33,52.22Z"/><path class="cls-2" d="M120.08,55.1c.13.53.26,1.05.37,1.58C120.34,56.15,120.21,55.63,120.08,55.1Z"/><path class="cls-2" d="M107.76,29.75q.77.94,1.51,1.92Q108.54,30.69,107.76,29.75Z"/><path class="cls-2" d="M106,27.73q.84.93,1.64,1.89Q106.85,28.65,106,27.73Z"/><path class="cls-2" d="M115.19,41.39c.3.62.6,1.24.89,1.87C115.79,42.62,115.49,42,115.19,41.39Z"/><path class="cls-3" d="M104.2,117.2q.9-.9,1.76-1.85l.06-.07q.84-.92,1.64-1.89l.1-.13q.77-.94,1.51-1.93l.15-.2c.47-.64.94-1.28,1.39-1.94l.19-.3c.43-.64.85-1.28,1.26-1.94l.24-.4c.38-.63.76-1.27,1.13-1.92l.27-.51c.34-.62.68-1.25,1-1.89.1-.2.19-.41.29-.61.3-.62.6-1.24.89-1.87.11-.24.2-.48.31-.72.26-.61.53-1.21.78-1.83.11-.28.21-.56.31-.84.23-.59.46-1.18.67-1.78.11-.32.21-.65.32-1,.19-.57.38-1.13.56-1.71.11-.36.2-.73.31-1.09.16-.55.32-1.1.46-1.66.1-.4.19-.82.29-1.23s.26-1.05.37-1.59.18-.91.26-1.37.2-1,.29-1.5.15-1,.23-1.52.15-.93.21-1.4.12-1.11.18-1.66.1-.87.14-1.31c.05-.62.08-1.24.12-1.86,0-.38.06-.76.07-1.15Q122,73,122,71.5t-.06-3.05c0-.39-.05-.77-.07-1.16,0-.62-.07-1.24-.12-1.85,0-.44-.09-.87-.14-1.31s-.11-1.11-.18-1.66-.14-.93-.21-1.4-.14-1-.23-1.52-.19-1-.29-1.5-.17-.91-.26-1.37-.25-1.06-.37-1.58-.19-.82-.29-1.23c-.14-.56-.31-1.1-.46-1.65-.1-.37-.2-.74-.31-1.1-.17-.58-.37-1.14-.56-1.71-.11-.33-.21-.66-.32-1-.21-.6-.44-1.19-.66-1.78-.11-.28-.21-.57-.32-.84-.25-.62-.51-1.22-.77-1.83-.1-.24-.2-.49-.31-.72-.28-.63-.59-1.25-.89-1.87-.1-.2-.19-.41-.29-.61-.32-.64-.66-1.26-1-1.89l-.27-.51c-.36-.65-.74-1.29-1.13-1.92l-.24-.4c-.41-.66-.83-1.3-1.26-1.94l-.19-.3c-.45-.66-.92-1.31-1.39-1.94l-.15-.2q-.74-1-1.51-1.92l-.1-.13q-.8-1-1.64-1.89l-.06-.07q-.86-1-1.76-1.85h0C95.72,17.31,84.86,12.16,73,12V131c11.86-.14,22.72-5.29,31.19-13.78Z"/><path class="cls-4" d="M60,100H86s-2.26,13-12.43,13S60,100,60,100Z"/><circle class="cls-5" cx="87" cy="70" r="6"/><circle class="cls-5" cx="60" cy="70" r="6"/><path class="cls-6" d="M51,63s3-6,8-4"/><path class="cls-6" d="M96.26,61.58S92.59,56,87.86,58.53"/><path class="cls-7" d="M76.1,27.11a5.26,5.26,0,0,0-8.69,0C59.36,39,42.4,62.8,32,68c-8.78,4.39.62,28.24,8.92,45.36,2.69,5.55,6.9,10.12,8.08,13.64,1,3,7.44,45.56,5,47s-13,12-19,13c-5.4.9-14-6-18-8-5.2-2.6-6-38-6-46C11,109.81,2,6,70,5s75,149,62,164c-3.94,4.55-9.53,15-18,15s-18.44-12.88-20-16c-2-4-.65-37.29,1-40,7.38-12.16,26.72-45.38,17-64C101.07,43.05,90,47.54,76.1,27.11Z"/><circle class="cls-8" cx="58.5" cy="69.5" r="1.5"/><circle class="cls-8" cx="84.5" cy="69.5" r="1.5"/><circle class="cls-9" cx="49.5" cy="89.5" r="6.5"/><circle class="cls-9" cx="97.5" cy="88.5" r="6.5"/></g></svg>
