<svg id="Layer_2" data-name="Layer 2" xmlns="http://www.w3.org/2000/svg" viewBox="0 0 146 220"><defs><style>.cls-1{fill:#202532;}.cls-2{fill:#e5d1bd;}.cls-3{fill:#f9dcc0;}.cls-4{fill:#fafbfc;}.cls-5{fill:#22b573;}.cls-6{fill:#f7931e;}.cls-7{fill:#c6c5c4;opacity:0.39;}.cls-8{fill:#fff;}.cls-9{fill:#c1272d;opacity:0.17;}</style></defs><title>Mikkel_FD2</title><rect class="cls-1" x="-2.84" y="126" width="151.84" height="130" rx="36.4" ry="36.4"/><path class="cls-2" d="M71,14V143c23.2,0,42-28.88,42-64.5S94.2,14,71,14Z"/><path class="cls-3" d="M29,78.5C29,114.12,47.8,143,71,143V14C47.8,14,29,42.88,29,78.5Z"/><path class="cls-4" d="M59,112H85s-2.26,13-12.43,13S59,112,59,112Z"/><circle class="cls-5" cx="59.5" cy="73.5" r="5.5"/><circle class="cls-5" cx="86.5" cy="72.5" r="5.5"/><path class="cls-6" d="M105,51c-6.65.72-1.15-5.5-1.15-5.5L28.16,51.74s-15-.64-19.12-14,1-15.38,1-15.38,5.13,11.79,11.79,11.79,0-10.76,0-10.76,11.79,5.13,9.74,8.2S38.77,10.1,64.4,7s31,1.65,39.6,16C108.2,30,111.65,50.28,105,51Z"/><circle class="cls-3" cx="29" cy="71" r="5"/><circle class="cls-2" cx="114" cy="70" r="5"/><path class="cls-6" d="M52,66s4-6,10-4"/><path class="cls-6" d="M94,67s-4-6-10-4"/><path class="cls-7" d="M71,77s14.06,22.11,7,23.59-7-1.47-7-1.47"/><path class="cls-6" d="M113.59,68.23s-6.38-30.57-8-31.4-9.73,3.26-8.17,7.71S113.59,68.23,113.59,68.23Z"/><path class="cls-6" d="M29.36,67.49S46,41.06,45.41,39.34s-9.26-4.41-11.23-.12S29.36,67.49,29.36,67.49Z"/><circle class="cls-8" cx="58" cy="73" r="1"/><circle class="cls-8" cx="84" cy="72" r="1"/><circle class="cls-9" cx="48.5" cy="91.5" r="7.5"/><circle class="cls-9" cx="97.5" cy="91.5" r="7.5"/></svg>
